<?xml version="1.0" encoding="UTF-8"?><svg id="a" xmlns="http://www.w3.org/2000/svg" width="2786" height="1006" viewBox="0 0 2786 1006"><path d="m0,550.98V0h2786v637.99c-1.39-4.74-2.4-9.63-4.24-14.18-3.33-8.21-10.57-13.09-17.11-18.38-3.33-2.7-4.15-4.99-2.59-9.14,5.23-13.94,7.53-28.4,4.87-43.22-3.87-21.53-15.23-38.84-31.47-53.02-18.9-16.51-38.16-32.6-57.09-49.08-15.04-13.1-30.82-24.84-50.17-30.97-20.69-6.55-41.73-9.3-63.41-7.08-14.55,1.49-28.2,5.77-41.34,12.01-1.88.89-3.86,1.6-5.87,2.42-.6-2.69-1.28-4.87-1.55-7.09-2.54-21.06-12.35-37.91-28.62-51.45-19.15-15.95-38.11-32.15-56.79-48.64-14.22-12.55-29.58-20.82-49.38-20.43-17.95.36-32.69,7.06-44.55,19.62-19.7,20.86-26.17,46.17-21.35,74.16,3.42,19.89,12.92,36.59,29,49.24,2.16,1.7,4.05,3.73,6.25,5.77-4.51,2.73-8.86,4.89-12.64,7.8-2.86,2.21-4.61,1.26-6.77-.61-7.29-6.31-14.81-12.36-21.9-18.89-17.79-16.4-39.11-23.7-62.86-24.84-14.7-.71-28.16,3.87-40.98,10.49-3.01,1.55-4.97,1.94-7.77-.61-13-11.85-28.4-12.51-43.69-6.62-15.2,5.85-29.67,13.58-44.38,20.66-4.9,2.36-9.55,5.26-14.09,7.8-.52-7.66-.88-14.92-1.52-22.15-1.81-20.49-11.03-37.28-26.34-50.67-17.14-14.98-34.48-29.74-51.98-44.31-10.5-8.74-19.93-19-33.69-23.23-18.79-5.78-36.82-5.34-53.95,5.19-28.28,17.37-40.49,51.8-34.96,84.45,3.14,18.52,11.59,34.22,25.53,46.86,3.16,2.87,6.47,5.57,10.01,8.6-18.83,11.31-37.33,22.11-49.35,41.23-15.88-13.5-31.48-26.63-46.94-39.93-10.33-8.88-20.62-17.71-32.95-23.9-20.86-10.47-43.38-12.75-66.12-13.78-8.38-.38-16.87.17-25.23,1.05-6.76.71-13.59,1.96-20.06,3.99-11.37,3.57-22.48,7.91-33.91,12.01.29-3.62.2-8.03,1.08-12.24,2.33-11.12,3.96-22.21,1.89-33.57-1.81-9.92-5.25-18.97-13.22-25.72-21.42-18.17-43.03-36.11-64.14-54.63-9.65-8.47-20.85-10.11-31.96-7.12-10.09,2.72-20.07,7.58-28.76,13.47-24.3,16.47-51.14,24.16-80.03,25.56-17.36.84-34.17-2.74-50.7-7.83-25.37-7.82-48.34-20.24-69.3-36.39-10.25-7.9-19.68-16.95-30.32-24.25-23.45-16.1-48.64-20.76-75.55-8.71-26.96,12.07-49.9,46.13-47.19,80.07,1.27,15.93,6.19,30.13,17.23,41.4,9.97,10.17,21.18,19.13,31.93,28.51,8.31,7.25,16.77,14.34,25.33,21.64-20.01,11.81-36.07,26.94-48.8,45.79-.93-.57-1.85-.98-2.59-1.6-14.54-12.41-29.49-24.38-43.48-37.39-15.91-14.8-34.12-23.26-55.83-24.14-19.36-.78-35.75,6.3-49.48,19.51-6.12,5.89-11.37,12.69-17,19.06-17.76-14.65-33.6-32.76-59.01-36.74,2.53-3.17,4.53-5.54,6.37-8.02,14.68-19.78,22.01-41.74,18.36-66.44-3.09-20.92-13.79-37.78-29.75-51.4-20.35-17.37-40.78-34.63-61.07-52.06-12.17-10.46-25.4-18.68-41.22-22.6-10.95-2.71-22.09-3.57-32.92-1.83-25.13,4.04-43.14,18.61-55.72,40.52-20.17,35.12-46.94,63.69-83.21,82.67-2.05,1.08-3.54,1.5-5.62-.29-17.13-14.74-34.66-29.01-51.52-44.03-32.7-29.14-70.64-42.09-114.26-38.32-14.62,1.27-28.43,5.57-40.77,13.46-20.36,13.02-32.13,31.32-31.73,56.14.11,7.21,1.26,14.4,1.93,21.61-.96-.79-2.21-1.8-3.44-2.85-14.55-12.38-29.29-24.56-43.6-37.21-11.2-9.9-24.26-9.64-37.35-7.06-8.24,1.62-16.5,4.61-23.93,8.54-19,10.05-37.64,20.83-56.25,31.61-12.07,6.99-23.74,14.65-33.04,25.28-9.53,10.88-15.36,23.02-14.56,38.11.57,10.72,5.2,19.32,11.8,26.93,7.7,8.89,10.97,19.24,12.33,30.5.43,3.52.51,7.07.8,11.21-5.38-4.61-10.01-8.91-14.98-12.76-11.4-8.83-22.37-18.4-34.6-25.9-17.27-10.6-36.53-15.29-56.95-16.97-14.71-1.21-28.97-.12-42.73,3.81-25.96,7.4-48.12,21.48-66.17,41.84-19.4,21.88-31.61,47.23-37.29,75.81C1.93,539.7,1.01,545.35,0,550.98ZM1012.26,53.71c8.79,28.23,17.5,56.19,26.26,84.3,19.37-5.48,38.42-10.87,57.88-16.38-1.63-5.5-3.15-10.59-4.73-15.92-13.85,3.79-27.27,7.46-41.1,11.25-1.77-6.05-3.49-11.9-5.36-18.31,12.19-3.41,24.48-6.84,37.09-10.37-1.62-5.51-3.12-10.61-4.71-16-12.59,3.42-24.79,6.74-37.3,10.14-1.66-6.17-3.22-11.98-4.85-18.02,14.25-3.95,28.07-7.79,41.88-11.62-1.43-5.72-2.67-10.72-4.07-16.31-20.21,5.71-40.12,11.34-60.99,17.24Zm684.98,36.6c.45-.26.96-.66,1.54-.87,8.71-3.11,13.16-9.62,14.15-18.49,1-8.95-2.99-15.67-10.27-20.68-8.17-5.62-17.32-6.49-26.91-6.45-6.28.02-10.91,2.79-14.44,7.23-7.37,9.27-7.26,17.65,1.35,29.38-12.74,3.61-19.68,11.3-20.72,22.05-1.24,12.82,6.77,21.65,17,26.3,6.81,3.09,13.88,4.26,21.47,4.33,18.82.17,29.27-19.8,22.2-35.08-1.29-2.79-3.54-5.13-5.37-7.73Zm-181.76-80.36c-12.01,0-21.08,4.7-26.54,14.8-9.43,17.44-10.93,35.88-4.67,54.62,3.8,11.37,13.02,17.62,24.31,19.36,11.56,1.78,22.35-.91,30.26-10.85,6.7-8.41,9.96-18.24,10.95-28.54.86-8.87,1.05-18.15-.59-26.85-2.43-12.9-15.02-23.36-33.72-22.54Zm-346.39,30.95c1.02-3.64,2.19-8.18,3.58-12.66.88-2.84-.02-4.51-2.81-5.06-4.31-.85-8.7-1.34-12.98-2.3-11.97-2.71-22.89-.1-32.61,6.95-12.83,9.31-13.71,26.9-2.13,37.65,5.71,5.3,13.1,6.31,20.42,7.4,5.32.79,10.7,1.39,15.87,2.75,3.54.93,5.86,3.64,5.7,7.77-.15,4.07-2.43,7.01-6.08,7.46-5.99.74-12.23,1.27-18.12.32-5.32-.85-10.3-3.79-15.41-5.8-1.12,4.62-2.45,9.3-3.26,14.06-.2,1.2.92,3.37,2.02,3.93,10.3,5.2,20.88,7.63,32.73,5.77,18.71-2.93,27.9-13.69,25.97-32.3-1.03-9.94-7.31-17.07-16.89-18.86-7.83-1.47-15.77-2.39-23.53-4.16-4.07-.93-7.71-3.37-7.64-8.42.07-4.87,4.22-5.83,7.65-7.31.85-.37,1.99-.23,2.97-.12,7.89.91,15.78,1.87,24.53,2.92Zm244.86,31.9c6.46-6.78,12.33-12.43,17.59-18.62,5.34-6.28,11.18-12.52,14.81-19.78,7.03-14.05.23-27.58-13.23-31.67-15.17-4.61-28.48-.45-40.71,8.61-.84.62-1.36,2.77-.96,3.8,1.66,4.3,3.73,8.44,5.75,12.87.84-.76,1.39-1.33,2.02-1.8,6.58-4.89,13.4-9.23,22.15-8.25,6.02.67,9.25,4.4,7.51,10.19-1.32,4.4-3.85,8.74-6.84,12.27-8.37,9.89-16.75,19.87-26.11,28.78-6.39,6.09-4.56,12.68-4.84,19.51,19.01.87,37.4,1.7,55.58,2.53.41-5.97.75-10.98,1.09-16.1-10.97-.76-21.73-1.5-33.81-2.34Zm-178.84,23.36c3.87-.45,7.09-1.05,10.31-1.15,6.38-.21,7.38-1.45,6.54-7.62-1.45-10.68-2.71-21.38-3.94-32.08-1.08-9.42-1.98-18.86-3-28.28-.33-3.02.9-3.98,3.94-4.15,6.98-.4,13.94-1.27,20.58-1.92-.2-4.16-.08-7.79-.67-11.3-.28-1.68-1.72-4.3-2.93-4.47-3.91-.57-7.99-.54-11.94-.13-11.17,1.15-22.31,2.53-33.45,3.94-6.87.87-13.72,1.95-20.84,2.97.97,6.15,1.81,11.55,2.61,16.61,8.32-1.03,16.32-2.01,24.33-3,2.85,23.81,5.62,46.87,8.46,70.6Zm362.61-55.24c-4.74,23.48-9.37,46.38-14.02,69.38,5.97,1.37,11.33,2.6,17.04,3.91,2.21-10.54,4.24-20.74,6.51-30.88,3.8-17.01,7.76-33.99,11.65-50.98.71-3.09-.31-4.83-3.64-5.45-9.59-1.79-19.15-3.8-29.19-5.81-1.13,5.48-2.26,10.93-3.41,16.52,5.53,1.22,10.21,2.25,15.07,3.31Zm-636.21,76.17c1.52,4.35,2.85,8.12,4.31,12.29,9.16-3.34,18.14-6.62,27.72-10.12-1.34-4.19-2.61-8.17-3.98-12.46-9.47,3.48-18.49,6.79-28.04,10.29Zm803.17,12.22c1.63-4.31,3.04-8.07,4.57-12.11-9.48-3.47-18.58-6.8-27.92-10.22-1.5,4.09-2.94,8.04-4.51,12.33,9.33,3.35,18.35,6.58,27.87,10Zm-452.67-48.24c-.01-7-1.84-9.11-7.88-9.13-5.57-.01-9.52,3.32-9.04,8.47.58,6.23,3.61,10.85,9.07,10.82,5.35-.03,7.87-3.3,7.85-10.17Z" fill="#fff"/><path d="m2786,644.99v361.01H0c0-141.34,0-282.68,0-424.02.33.81.84,1.59.97,2.43,1.07,6.55,1.68,13.22,3.17,19.67,7.47,32.18,23.02,59.82,47.79,81.82,16.52,14.67,33.68,28.63,50.47,43.02,14.59,12.5,28.7,25.61,46.26,34.06,13.47,6.48,27.57,11.45,42.4,12.75,10.97.96,22.17-.15,33.23-.8,13.88-.81,27.03-4.98,39.24-11.31,11.11-5.77,21.53-12.85,32.73-19.65,2.04,1.71,4.94,3.89,7.57,6.37,10.14,9.57,21.58,16.59,35.3,19.99,12.77,3.17,25.6,5.83,38.77,5.58,16.18-.31,32.4-.67,48.5-2.13,10.01-.91,20.03-3.21,29.67-6.11,12.03-3.62,22.34-10.4,29.65-21.25,2.94,2.42,5.5,4.51,8.04,6.62,14.08,11.65,29.95,20.67,48.02,22.56,19.14,2,38.53.43,57.66-3.04,10.81-1.96,21.28-6.22,32.82-3.74,8.72,1.87,17.85,1.78,26.67,3.3,13.91,2.39,27.8,4.51,41.98,3.9,11.65-.5,22.93-2.45,33.24-8.19,19.37-10.8,28.09-31.48,22.24-54.04-2.06-7.95-7.67-13.3-12.59-19.29-2.1-2.55-3.83-5.72-4.73-8.9-4.72-16.66-5.6-33.96-5.83-51.02-.51-37.24.28-74.51.81-111.76.18-12.51,1.19-25.01,1.85-38.16,4.77-.31,9.22-.6,14.5-.95-1.27,2.01-2.01,3.22-2.79,4.42-5.54,8.5-8.62,18.07-8.37,27.96.25,9.77,4.57,18.58,10.7,26.48,3.69,4.75,7.9,9.8,9.38,15.38,2.32,8.73,3.09,18,3.49,27.09.39,8.89-.2,17.86-.95,26.74-.54,6.45-1.21,13.12-3.4,19.11-1.79,4.89-5.58,9.23-9.12,13.24-6.62,7.51-10.5,16.25-10.17,25.99.44,13.27,6.89,23.84,17.2,32.39,17.9,14.85,35.37,30.22,53.19,45.18,6.46,5.43,13.02,10.93,20.21,15.26,15.24,9.18,32.67,11.87,49.9,12.74,20.91,1.04,41.93,1.07,62.82-2.54,18.49-3.19,35.79-8.26,49.28-22.55,3.16,2.65,6.22,5.16,9.22,7.74,11.57,9.97,25.22,16.22,40.14,17.23,14.23.97,28.7-.41,42.99-1.69,19.82-1.78,37.66-8.24,50.27-25.28,16,15.72,35.41,24.68,57.05,27.01,16.51,1.78,33.39,1.09,49.92-2.17,18.41-3.64,35.09-10.24,45.47-27.56,29.99,23.51,63.23,33.96,101.01,29.17,37.87-4.8,67.37-23.82,91.34-52.85,10.7,9.13,21.34,17.66,31.36,26.88,19.7,18.13,42.44,27.91,69.45,26.89,6.92-.26,13.84-.61,20.75-1,13.91-.79,27.12-4.53,40-9.64,11.47-4.55,21.79-10.94,30-19.04,8.9,6.13,16.97,12.58,25.85,17.6,16.38,9.27,34.24,12.67,53.12,12.25,14.42-.33,28.34-2.33,41.16-8.91,10.4-5.34,20.42-11.48,30.3-17.75,3.89-2.47,7.04-2.72,10.83-.4,5.37,3.28,10.87,6.36,16.31,9.54,13.47,7.86,27.4,15.54,42.95,17.04,21.59,2.08,42.82-.31,61.37-13.59,1.5-1.07,4.56-1.82,5.85-1.03,17.03,10.42,36.09,13.79,55.37,14.68,20.41.94,40.94,1.11,61.3-2.6,12.73-2.32,25.02-5.37,36.46-11.62,1.73-.95,4.92-.99,6.59-.01,17.38,10.16,36.61,13.62,56.15,14.24,17.64.56,35.36-.85,53.02-1.81,14.42-.78,28.19-4.52,40.96-11.32,14.12-7.52,22.75-19.15,23.5-35.39.51-11.09-4.35-20.28-12.4-27.97-3.17-3.03-6.9-6.54-8-10.49-3.14-11.29-6.25-22.83-7.16-34.44-1.23-15.73-.47-31.61-.43-47.43.03-8.51.35-17.02.57-26.6,8.51,7.25,15.79,13.76,23.4,19.85,7.62,6.1,15.3,12.21,23.52,17.43,2.9,1.84,4.28,3.21,3.64,6.26-1.3,6.22-2.12,12.59-7.64,17.1-2.52,2.05-4.46,4.9-6.35,7.61-7.68,11.02-8.85,22.78-4,35.3,3.31,8.53,9.49,14.61,16.27,20.33,14.72,12.44,29.27,25.07,44.05,37.43,8.65,7.24,17,15.09,26.55,20.92,15.51,9.47,33.41,12.53,51.2,13.24,23.05.92,46.25,1.34,69.05-3.75,20.6-4.59,39.75-11.33,49-33.13.68.52,1.2.86,1.65,1.27,21.64,19.47,46.58,32.52,75.65,35.57,15.82,1.66,31.92.73,47.63-3.4,30.28-7.95,54.92-24.47,74.3-48.78,13.83-17.35,23.91-36.7,28.68-58.6,1.46-6.69,3.28-13.3,4.94-19.94ZM664.11,961.99c16.26,0,32.06.08,47.86-.07,3.05-.03,6.17-.68,9.11-1.54,13-3.83,21.25-12.61,21.65-24.56.21-6.22-1.03-12.76-2.97-18.72-2.09-6.43-7.49-10.46-14.76-12.81,8.95-4.26,13.3-10.59,14.39-19.87,1.15-9.76-.93-17.76-8.44-24.27-6.69-5.79-14.94-6.73-23.11-7.03-12.47-.46-24.97-.12-37.46-.13-2.09,0-4.17,0-6.28,0v109Zm448.15-109v108.98c16.22,0,32.18.06,48.13-.06,2.75-.02,5.56-.52,8.23-1.22,12.64-3.32,21.65-12.84,22.09-24.82.23-6.22-1.02-12.76-2.95-18.72-2.09-6.46-7.44-10.54-14.28-12.69.66-.61.95-1.08,1.36-1.24,14.01-5.28,16.3-27.75,8.58-38.38-6.54-9.01-16.09-11.27-26.01-11.69-14.93-.63-29.91-.16-45.16-.16Zm772.57,110c16.93.48,31.16-7.57,39.43-18.89,6.44-8.81,9.6-18.62,11.03-29.6,1.73-13.29-.67-25.49-6.64-36.87-7.46-14.22-19.3-22.46-35.77-24.91-16.77-2.5-30.68,2.29-41.46,14.39-16.86,18.94-19.23,40.99-10.39,64.36,7.04,18.59,25.87,32.19,43.79,31.51Zm-463.69-1.13v-30.87c6.36,0,12.33-.16,18.29.13,1.33.06,3.16,1.44,3.78,2.69,4.21,8.44,8.09,17.04,12.27,25.5.58,1.17,2.21,2.52,3.4,2.56,6.93.24,13.88.12,21.59.12-6.71-12.29-13.07-23.94-19.46-35.66,8.12-5.08,13.72-12.07,15.09-21.34,1.11-7.51,1.22-15.29.77-22.89-.7-11.85-6.78-20.67-17.81-25.27-4.87-2.03-10.32-3.48-15.55-3.66-14.41-.49-28.85-.17-43.24-.17v108.86h20.87Zm-376.72.05c-6.71-12.31-13.05-23.95-19.19-35.24,2.82-2.57,5.4-4.65,7.65-7.02,5.85-6.15,7.86-13.98,8.69-22.06,1.35-13.21-.05-25.81-10.32-35.69-7.09-6.83-16.26-8.44-25.46-8.8-12.81-.5-25.65-.13-38.47-.1-1.09,0-2.17.24-2.94.34v108.45h20.78v-30.81c6.23,0,11.9.09,17.56-.04,2.41-.05,3.66.48,4.78,3.02,4.17,9.47,8.82,18.73,13.22,27.94h23.7Zm704.4-108.78v45.24h-41.96v-45.17h-20.64v108.55h20.83v-42.54h42.03v42.51h20.63v-108.6h-20.9Zm-489.57-.14v108.75h71.47v-20.37h-50.43v-24.56h43.42v-19.99h-43.43v-23.51h48.53v-20.31c-1.11,0-1.91,0-2.71,0-22.14,0-44.28,0-66.84,0Zm-357.2,109.01c-6.1-16.82-11.94-32.92-17.78-49.03-6.64-18.3-13.47-36.54-19.79-54.95-1.39-4.05-3.06-5.47-7.19-5.12-4.3.37-8.66.19-12.98.04-2.45-.08-3.76.46-4.7,3.1-2.95,8.3-6.5,16.39-9.53,24.67-7.91,21.61-15.67,43.28-23.48,64.92-1.92,5.31-3.81,10.63-5.79,16.16h21.46c2.15-6.02,4.41-11.78,6.22-17.67.78-2.55,1.88-3.38,4.5-3.35,11.99.13,23.98-.04,35.96.18,1.43.03,3.58,1.48,4.11,2.8,1.95,4.86,3.15,10.01,5.08,14.88.56,1.42,2.53,3.14,3.94,3.21,6.47.34,12.96.15,19.97.15Zm708.84-78.68c2.03-5.17,4.47-10.93,6.47-16.84.42-1.23-.26-3.8-1.25-4.41-16.2-9.87-33.34-13.98-51.57-6.33-10.44,4.39-16.19,12.96-17.43,24.18-1.29,11.71,1.31,22.27,12.18,28.63,5.98,3.5,12.75,5.66,19.13,8.49,4.82,2.13,9.82,3.98,14.32,6.66,4.09,2.44,4.71,7.24,3.04,11.01-1.19,2.68-4.55,5.09-7.48,6.18-8.58,3.2-16.43-.29-23.76-4.39-5.27-2.95-10.05-6.8-15.13-10.3-2.26,5.44-4.43,10.94-6.84,16.34-1.02,2.27-.96,3.84,1.1,5.54,15.23,12.53,32.24,18.3,51.84,13.24,14.43-3.73,22.92-14.43,23.42-29.31.46-13.67-4.55-24.47-17.75-30.19-4.21-1.82-8.66-3.08-12.88-4.87-4.94-2.1-10.08-3.99-14.55-6.89-6.88-4.46-6.49-12.52.97-15.49,3.9-1.55,9.17-1.54,13.26-.34,7.77,2.28,15.15,5.93,22.88,9.09Zm412.12,47.68c7.73,0,14.9.37,22.02-.08,16.21-1.02,27.34-8.58,31.27-23.5,1.89-7.18,1.57-15.03,1.64-22.58.14-14.35-9.2-26.54-22.24-29.84-3.01-.76-6.08-1.78-9.13-1.82-14.76-.19-29.52-.09-44.28-.09v108.59h20.71v-30.7Z" fill="#fff"/><path d="m2786,644.99c-1.66,6.64-3.48,13.25-4.94,19.94-4.77,21.89-14.85,41.24-28.68,58.6-19.38,24.31-44.02,40.82-74.3,48.78-15.71,4.13-31.81,5.06-47.63,3.4-29.07-3.05-54.01-16.1-75.65-35.57-.45-.41-.97-.75-1.65-1.27-9.25,21.8-28.4,28.54-49,33.13-22.81,5.09-46,4.68-69.05,3.75-17.8-.71-35.69-3.76-51.2-13.24-9.55-5.83-17.91-13.68-26.55-20.92-14.78-12.36-29.33-25-44.05-37.43-6.77-5.72-12.96-11.8-16.27-20.33-4.86-12.52-3.68-24.28,4-35.3,1.89-2.71,3.83-5.56,6.35-7.61,5.52-4.5,6.34-10.87,7.64-17.1.64-3.05-.75-4.42-3.64-6.26-8.22-5.22-15.9-11.33-23.52-17.43-7.61-6.1-14.9-12.6-23.4-19.85-.21,9.59-.54,18.1-.57,26.6-.05,15.82-.8,31.7.43,47.43.91,11.61,4.02,23.15,7.16,34.44,1.1,3.95,4.82,7.46,8,10.49,8.05,7.69,12.91,16.88,12.4,27.97-.75,16.24-9.38,27.87-23.5,35.39-12.77,6.8-26.55,10.54-40.96,11.32-17.66.96-35.38,2.37-53.02,1.81-19.54-.62-38.77-4.08-56.15-14.24-1.67-.98-4.86-.93-6.59.01-11.44,6.25-23.73,9.3-36.46,11.62-20.36,3.72-40.89,3.54-61.3,2.6-19.28-.89-38.34-4.26-55.37-14.68-1.3-.79-4.36-.04-5.85,1.03-18.55,13.28-39.78,15.67-61.37,13.59-15.56-1.5-29.48-9.18-42.95-17.04-5.44-3.18-10.94-6.26-16.31-9.54-3.79-2.32-6.94-2.07-10.83.4-9.88,6.27-19.9,12.41-30.3,17.75-12.82,6.58-26.74,8.58-41.16,8.91-18.88.43-36.74-2.97-53.12-12.25-8.88-5.03-16.95-11.48-25.85-17.6-8.21,8.1-18.53,14.49-30,19.04-12.87,5.11-26.09,8.85-40,9.64-6.91.39-13.83.74-20.75,1-27.01,1.02-49.75-8.76-69.45-26.89-10.01-9.21-20.65-17.74-31.36-26.88-23.97,29.02-53.47,48.05-91.34,52.85-37.78,4.79-71.02-5.65-101.01-29.17-10.38,17.32-27.06,23.92-45.47,27.56-16.52,3.27-33.41,3.95-49.92,2.17-21.64-2.33-41.05-11.29-57.05-27.01-12.61,17.03-30.45,23.5-50.27,25.28-14.28,1.28-28.76,2.67-42.99,1.69-14.92-1.02-28.56-7.27-40.14-17.23-3-2.58-6.05-5.09-9.22-7.74-13.49,14.28-30.79,19.35-49.28,22.55-20.89,3.61-41.91,3.58-62.82,2.54-17.23-.86-34.66-3.55-49.9-12.74-7.2-4.33-13.75-9.84-20.21-15.26-17.82-14.95-35.29-30.33-53.19-45.18-10.31-8.55-16.75-19.12-17.2-32.39-.33-9.74,3.55-18.48,10.17-25.99,3.54-4.02,7.33-8.36,9.12-13.24,2.2-5.99,2.86-12.67,3.4-19.11.75-8.88,1.34-17.85.95-26.74-.4-9.09-1.17-18.36-3.49-27.09-1.48-5.58-5.7-10.63-9.38-15.38-6.13-7.89-10.45-16.71-10.7-26.48-.25-9.9,2.83-19.46,8.37-27.96.78-1.19,1.52-2.4,2.79-4.42-5.28.34-9.73.63-14.5.95-.66,13.15-1.67,25.65-1.85,38.16-.53,37.25-1.32,74.52-.81,111.76.23,17.06,1.11,34.36,5.83,51.02.9,3.17,2.63,6.34,4.73,8.9,4.92,5.98,10.53,11.34,12.59,19.29,5.85,22.56-2.87,43.25-22.24,54.04-10.3,5.74-21.59,7.69-33.24,8.19-14.18.61-28.07-1.51-41.98-3.9-8.82-1.51-17.95-1.43-26.67-3.3-11.54-2.48-22.01,1.77-32.82,3.74-19.12,3.47-38.52,5.05-57.66,3.04-18.07-1.89-33.94-10.91-48.02-22.56-2.55-2.11-5.11-4.2-8.04-6.62-7.31,10.84-17.62,17.63-29.65,21.25-9.65,2.9-19.67,5.2-29.67,6.11-16.1,1.46-32.32,1.82-48.5,2.13-13.17.25-26-2.4-38.77-5.58-13.72-3.41-25.16-10.42-35.3-19.99-2.62-2.48-5.53-4.66-7.57-6.37-11.2,6.79-21.62,13.88-32.73,19.65-12.2,6.34-25.36,10.5-39.24,11.31-11.07.65-22.26,1.76-33.23.8-14.83-1.3-28.93-6.27-42.4-12.75-17.56-8.45-31.68-21.56-46.26-34.06-16.78-14.38-33.94-28.34-50.47-43.02-24.77-22-40.32-49.64-47.79-81.82-1.5-6.45-2.1-13.11-3.17-19.67-.14-.84-.64-1.62-.97-2.43,0-10.33,0-20.67,0-31,1.01-5.63,1.93-11.28,3.05-16.9,5.67-28.59,17.88-53.93,37.29-75.81,18.05-20.36,40.2-34.44,66.17-41.84,13.77-3.93,28.02-5.02,42.73-3.81,20.41,1.67,39.68,6.37,56.95,16.97,12.23,7.51,23.21,17.08,34.6,25.9,4.97,3.85,9.6,8.15,14.98,12.76-.28-4.13-.37-7.69-.8-11.21-1.37-11.26-4.63-21.61-12.33-30.5-6.6-7.61-11.23-16.22-11.8-26.93-.8-15.09,5.03-27.23,14.56-38.11,9.31-10.63,20.98-18.29,33.04-25.28,18.61-10.78,37.24-21.56,56.25-31.61,7.43-3.93,15.7-6.92,23.93-8.54,13.09-2.58,26.15-2.84,37.35,7.06,14.31,12.65,29.04,24.83,43.6,37.21,1.23,1.05,2.49,2.06,3.44,2.85-.67-7.2-1.81-14.4-1.93-21.61-.39-24.82,11.38-43.12,31.73-56.14,12.34-7.89,26.15-12.19,40.77-13.46,43.61-3.78,81.55,9.18,114.26,38.32,16.86,15.03,34.4,29.3,51.52,44.03,2.09,1.79,3.57,1.37,5.62.29,36.27-18.98,63.04-47.56,83.21-82.67,12.58-21.91,30.59-36.49,55.72-40.52,10.83-1.74,21.97-.88,32.92,1.83,15.82,3.92,29.05,12.15,41.22,22.6,20.29,17.43,40.73,34.7,61.07,52.06,15.96,13.62,26.66,30.48,29.75,51.4,3.65,24.7-3.68,46.67-18.36,66.44-1.84,2.48-3.85,4.85-6.37,8.02,25.41,3.98,41.25,22.09,59.01,36.74,5.63-6.37,10.88-13.17,17-19.06,13.73-13.21,30.12-20.28,49.48-19.51,21.71.87,39.92,9.33,55.83,24.14,13.98,13.01,28.93,24.99,43.48,37.39.73.63,1.66,1.03,2.59,1.6,12.73-18.85,28.79-33.97,48.8-45.79-8.56-7.3-17.02-14.39-25.33-21.64-10.76-9.38-21.96-18.34-31.93-28.51-11.04-11.27-15.96-25.46-17.23-41.4-2.71-33.94,20.23-68.01,47.19-80.07,26.91-12.05,52.1-7.39,75.55,8.71,10.64,7.3,20.07,16.35,30.32,24.25,20.96,16.16,43.93,28.57,69.3,36.39,16.53,5.1,33.34,8.68,50.7,7.83,28.89-1.4,55.72-9.09,80.03-25.56,8.69-5.89,18.66-10.76,28.76-13.47,11.11-2.99,22.31-1.35,31.96,7.12,21.11,18.52,42.73,36.47,64.14,54.63,7.96,6.75,11.41,15.8,13.22,25.72,2.07,11.35.44,22.44-1.89,33.57-.88,4.2-.79,8.61-1.08,12.24,11.43-4.09,22.55-8.44,33.91-12.01,6.48-2.03,13.3-3.28,20.06-3.99,8.36-.87,16.85-1.43,25.23-1.05,22.74,1.03,45.26,3.31,66.12,13.78,12.33,6.19,22.62,15.02,32.95,23.9,15.46,13.3,31.05,26.43,46.94,39.93,12.02-19.12,30.53-29.92,49.35-41.23-3.54-3.03-6.85-5.74-10.01-8.6-13.95-12.65-22.39-28.34-25.53-46.86-5.54-32.65,6.68-67.08,34.96-84.45,17.13-10.52,35.16-10.97,53.95-5.19,13.75,4.23,23.19,14.49,33.69,23.23,17.49,14.57,34.84,29.33,51.98,44.31,15.31,13.38,24.54,30.17,26.34,50.67.64,7.23,1,14.48,1.52,22.15,4.55-2.53,9.19-5.44,14.09-7.8,14.71-7.08,29.19-14.81,44.38-20.66,15.29-5.88,30.69-5.22,43.69,6.62,2.8,2.55,4.76,2.17,7.77.61,12.83-6.63,26.28-11.2,40.98-10.49,23.75,1.15,45.06,8.44,62.86,24.84,7.08,6.53,14.61,12.58,21.9,18.89,2.16,1.87,3.9,2.82,6.77.61,3.77-2.91,8.13-5.07,12.64-7.8-2.2-2.04-4.09-4.07-6.25-5.77-16.08-12.65-25.58-29.35-29-49.24-4.81-28,1.65-53.3,21.35-74.16,11.86-12.56,26.6-19.27,44.55-19.62,19.8-.39,35.16,7.88,49.38,20.43,18.69,16.49,37.64,32.69,56.79,48.64,16.27,13.55,26.08,30.39,28.62,51.45.27,2.23.95,4.4,1.55,7.09,2.01-.82,3.99-1.53,5.87-2.42,13.13-6.24,26.79-10.52,41.34-12.01,21.68-2.23,42.72.52,63.41,7.08,19.35,6.13,35.12,17.87,50.17,30.97,18.92,16.48,38.19,32.57,57.09,49.08,16.23,14.18,27.6,31.49,31.47,53.02,2.66,14.82.36,29.27-4.87,43.22-1.56,4.15-.74,6.44,2.59,9.14,6.54,5.29,13.79,10.17,17.11,18.38,1.84,4.55,2.85,9.44,4.24,14.18v7ZM650.02,407.14c11.58-.41,23.16-.77,34.74-1.24,4.77-.19,9.58-.28,14.28-1.01,20.48-3.16,41-6.18,61.38-9.94,28.24-5.2,55.71-13.27,81.82-25.35,16.79-7.77,32.89-16.77,44.55-31.82,13.63-17.6,20.71-37.08,13.64-59.13-10.49-32.69-41.79-47.78-68.59-46.37-18.42.97-32.87,10.68-43.09,26.57-9.03,14.04-18.02,28.23-28.41,41.25-22.68,28.45-51.27,49.39-85.32,62.48-8.51,3.27-17.4,5.55-26.07,8.26-1.16-3.72-2.14-6.46-2.87-9.28-6.24-24.2-19.16-44.2-38.37-60.03-19.62-16.16-42.11-25.24-67.57-27.77-19.66-1.96-38.23.13-55.62,9.88-16.84,9.45-26.35,28.76-22.42,47.2,4.41,20.74,16.67,36.07,34.6,47.04,15.17,9.28,31.69,15.22,49.57,19.76v62.06c-6.2-4.6-12.45-9.68-19.12-14.11-14.95-9.93-31.91-13.91-49.28-11.27-24.61,3.73-43.4,17.89-58.01,37.77-17.96,24.43-26.23,52.37-28.63,82.08-1.5,18.61.35,37.14,5.66,55.24,6.08,20.76,15.37,39.78,29.56,56.21,11.81,13.69,25.63,24.87,43.26,29.86,18.55,5.25,37.38,2.49,56.06-.06,14.3-1.96,28.15-7.41,43.07-4.63,9.35,1.75,18.91,2.39,28.36,3.64,8.44,1.12,16.82,2.93,25.29,3.45,11.76.72,23.46.3,34.61-4.76,12.57-5.71,21.69-25.98,7.43-37.51-5.35-4.33-8.6-10.43-10.63-17.35-6.37-21.75-6.65-44.2-7.68-66.48-.98-21.28-.22-42.65-.22-63.98,0-9.66-.35-19.34.1-28.99.69-14.97,2.09-29.91,2.84-44.88.44-8.64.21-17.32.28-25.98.27-.28.54-.57.8-.85Zm241.45,77.16c-.38-.21-.76-.43-1.14-.64,1.54-11.16,3.84-22.27,4.39-33.48.52-10.62-3.31-17.11-15.36-16.03-6.16.55-12.5,1.97-18.2,4.33-27.31,11.31-52.3,26.91-76.95,42.99-8.04,5.24-15.32,11.67-20.04,20.38-4.55,8.4-5.5,16.7.76,24.78,2.03,2.62,4.32,5.1,5.99,7.94,2.9,4.93,6.68,9.82,7.81,15.21,2.49,11.82,4.34,23.89,4.95,35.94.53,10.47-.68,21.07-1.72,31.55-1.51,15.15-3.45,30.13-16.42,40.96-3.76,3.14-5.86,7.83-4.81,13.63,1.52,8.34,7.01,12.78,13.82,16.3,12.39,6.39,26.02,8.91,39.54,9.53,22.43,1.03,45.03,1.58,67.18-3.68,9.85-2.34,19.62-5.02,27.05-12.57,6.87-6.98,6.59-15.86-.84-22.11-6.38-5.36-10.86-11.87-13.61-19.73-7.03-20.08-9.25-40.79-9.03-61.96.18-16.99,3.54-33.38,8.31-49.51,3.88-13.14,8.31-26.2,16.95-37.15,1.83-2.32,5.44-4.7,8.02-4.48,1.93.16,4.51,4.25,5.05,6.94,1.43,7.07,2.59,14.33,2.64,21.52.25,36.66,0,73.33.21,109.99.05,7.85.63,15.84,2.17,23.52,3,14.96,8.96,28.56,21.72,38.07,9.33,6.95,19.77,11.31,31.48,11.41,10.75.09,21.56-.07,32.24-1.18,11-1.14,21.81-3.69,31.12-10.36,11.35-8.14,12.21-19.99,2.04-29.28-1.1-1-2.27-1.95-3.48-2.82-11.31-8.12-17.29-18.61-16.52-33.05.68-12.63.37-25.33.09-37.99-.42-18.26,1.51-36.2,6.19-53.85,3.56-13.43,7.47-26.77,15.87-38.12,1.71-2.31,5.42-5.3,7.33-4.77,2.38.65,4.95,4.41,5.5,7.21,1.45,7.41,2.52,15.02,2.57,22.55.24,35.83-.13,71.66.25,107.49.09,8.78,1.32,17.78,3.6,26.25,4.01,14.88,12.37,27.16,25.77,35.43,12.37,7.63,25.65,12.41,40.38,12.6,13.88.18,27.75.12,41.34-3.14,8.72-2.09,17.32-4.85,23.62-11.73,6.2-6.77,8.6-16.48-.33-23.98-3.63-3.05-6.73-6.95-9.37-10.93-11.1-16.76-15.7-35.96-19.43-55.28-5.41-27.97-9.7-56.16-15.27-84.09-3.76-18.85-9.84-37.02-21.49-52.81-19.42-26.31-61.46-32.04-85.14-2.48-11.5,14.36-18.69,30.6-23.33,48.17-1.01,3.82-1.92,7.68-2.98,11.92-2.11-6.81-3.91-12.92-5.91-18.97-8.4-25.49-20.95-47.53-48.07-57.34-14.89-5.38-29.4-5.17-43.21,3.25-14.95,9.12-23.75,23.22-30.83,38.66-.77,1.68-1.65,3.31-2.47,4.96Zm667.57-9.31c0-11.09-.25-21.65.09-32.18.23-7.37,1.12-14.72,1.97-22.05,1.55-13.39,3.24-26.76,4.98-40.13,1.53-11.85,3.75-23.64,4.6-35.53.49-6.79-.31-13.95-2.03-20.56-1.82-6.99-8.19-9.53-15.42-7.92-10.94,2.42-19.87,8.79-29,14.71-22.15,14.38-46.55,22.31-72.67,24.48-30.22,2.52-59.46-2.42-87.45-14.18-23.47-9.87-45.09-22.86-64.9-38.9-9.53-7.72-18.96-15.69-29.17-22.42-10.54-6.94-23.13-9.4-35.27-6.98-31.3,6.24-50.31,36.73-47.84,64.34,1.4,15.64,8.79,27.63,21.98,35.92,28.75,18.06,60.24,28.71,93.96,31.05,17.71,1.23,35.79.17,53.45-1.94,20.26-2.42,40.3-6.9,60.33-10.98,11.65-2.37,19.81.21,26.08,10.21,2.23,3.56,3.89,7.59,5.18,11.6,3.26,10.15,2.68,20.54,1.16,30.92-1.93,13.14-7.44,24.51-19.42,30.8-10.48,5.49-13.81,13.48-12.63,24.39.91,8.42,5.77,17.58,17.58,16.32,3.25-.35,6.58-.05,10.34-.05v5.8c0,36.32-.04,72.65.05,108.97.01,5.13.21,10.33,1.09,15.37,4.09,23.65,17.12,40.18,40.11,47.85,19.18,6.4,38.81,5.26,58.34,1.58,14.89-2.81,29.03-7.77,41.19-17.16,6.64-5.13,11.8-11.33,11.25-20.46-.35-5.78-2.48-8.24-7.32-7.92-11.82.78-19.23-4.73-23.77-15.33-8.36-19.54-9.19-40.39-10.72-61.07-.76-10.27-.22-20.64-.15-30.97.07-8.83.32-17.66.49-26.85h60.32c0-9.49.66-18.67-.19-27.7-.82-8.73-6.2-13.43-14.98-13.14-13.97.45-27.97.12-41.61.12Zm173.34-41.05c-23.19-.27-42.71,3.3-61.06,12.02-19.6,9.32-33.97,23.59-41.71,44.34-6,16.09,1.59,30.92,9.13,36.72,12.56,9.67,26.71,13.78,42.64,11.08,17.4-2.95,28.97-12.87,31.72-30.47.87-5.52,1.73-11.07,3.08-16.48,1.78-7.13,3.42-14.4,6.27-21.13,3.11-7.33,9.67-8.28,15.83-3.2,1.4,1.15,2.74,2.43,3.87,3.83,9.17,11.32,10.51,24.74,8.37,38.22-2.88,18.12-13.99,30.31-31.09,36.78-6.45,2.44-13.12,4.32-19.76,6.24-17.58,5.09-35.44,9.32-52.71,15.28-18.24,6.31-32.22,17.94-38.55,37.19-7.65,23.29-6.12,45.33,9.16,65.19,11.46,14.89,27.08,23.24,45.45,26.78,22.77,4.39,44.29,1.55,64.25-10.68,7.2-4.41,14.21-9.12,21.44-13.49,6.65-4.02,13.78-4.78,20.83-1.26,7.98,3.99,15.91,8.13,23.55,12.73,18.22,10.96,37.3,17.72,58.92,13.36,10.52-2.12,20.43-5.74,28.08-13.7,8.66-9.01,8.31-18.7-1.41-25.96-11.49-8.58-17.98-20.14-21.57-33.58-7.25-27.12-7.92-55.21-11.97-82.81-2.3-15.71-5.33-31.2-11.15-46-9.74-24.76-26.19-43.16-51.45-52.77-17.07-6.49-34.92-8.48-50.15-8.27Zm-444.09,156.35c15.76,6.54,31.98,7.67,48.06,2.6,29.33-9.25,50.6-28.22,63.92-55.96,6.32-13.17,8.24-27.09,4.54-41.26-3.2-12.26-10.19-22.67-19.17-31.45-18.46-18.04-40.99-26.87-66.57-29.43-16.05-1.61-31.64-.83-46.9,4.2-53.83,17.72-83.31,67.86-86.92,118.25-.74,10.29.24,20.88,1.81,31.12,5.53,36.3,22.39,66.32,52.3,88.06,31.96,23.23,67.33,28.71,104.27,14.86,44.68-16.75,68.97-51.38,79.11-96.83,1.14-5.09.89-10.71.16-15.93-.84-5.99-7.3-8.26-12.21-4.66-2.24,1.64-3.94,4.01-5.93,6-9.26,9.23-17.75,19.44-27.98,27.41-15.28,11.91-32.65,19.12-52.9,15.74-16.64-2.78-31.13-16.75-35.58-32.72Zm1273.73.3c1.97.55,3.37.89,4.74,1.33,14.06,4.42,28.48,4.9,42.5,1.18,27.69-7.34,47.88-24.86,62.1-49.37,8.93-15.39,12.78-31.96,7.53-49.39-4.52-15.01-13.91-27.07-26.17-36.68-25.88-20.29-55.69-26.31-87.69-22.65-24.07,2.75-44.97,13.24-62.26,29.93-34.43,33.25-47.97,74.31-41.65,121.44,5.02,37.48,22.56,68.49,53.58,90.68,30.92,22.13,65.1,27.36,101.16,15.07,35.2-12,58.7-36.84,73.16-70.58,5.49-12.82,9.92-26.11,8.81-40.32-.24-3.01-3-6.93-5.67-8.28-2.06-1.04-5.99.96-8.76,2.28-1.64.78-2.71,2.83-3.93,4.39-12.2,15.63-26.14,29.29-44.45,37.57-16.52,7.48-33.37,10.36-50.27.87-10.75-6.04-17.28-15.69-22.72-27.46ZM143.18,698.22c29.04.29,56-11.57,78.49-33.56,26.77-26.18,39.11-58.86,40.03-95.81.28-11.23-1.48-22.66-3.58-33.76-4.03-21.29-13.53-40.25-27.24-57.01-21.34-26.09-48.71-41.29-82.44-43.97-24.65-1.95-47.48,4.33-68.1,17.94-29.73,19.62-47.54,47.42-55.63,81.86-4.78,20.37-5.1,40.69-.89,61.19,6.21,30.2,20.2,55.92,43.8,75.91,20.89,17.7,45.03,27.31,75.56,27.2Zm182.82.85c13.76-1.34,27.59-2.25,41.27-4.14,10.47-1.44,20.64-4.4,29.37-10.96,8.36-6.28,11.35-18.25.44-26.22-6.41-4.68-9.91-11.68-11.89-18.96-6.13-22.49-7.64-45.7-9.09-68.84-.78-12.44-.66-24.96-.51-37.43.3-25.08.76-50.16,1.42-75.23.35-13.19,1.17-26.38,1.93-39.56.94-16.29,1.85-32.59,3.15-48.85.85-10.61,2.56-21.15,3.55-31.75,1.48-15.95-3.29-22.49-18.91-20.95-5.73.57-11.63,2.72-16.76,5.44-20.42,10.85-40.62,22.12-60.79,33.43-11.18,6.27-21.83,13.32-30.16,23.32-7.81,9.38-10.8,22.28-1.13,33.39,7.09,8.14,12.51,17.21,15.23,27.98,4.43,17.5,3.53,35.38,4.64,53.1.67,10.6-.11,21.3-.34,31.95-.44,20.92-.71,41.84-1.52,62.75-.45,11.49-1.64,22.97-2.91,34.42-1.5,13.52-4.93,26-15.87,35.77-8.37,7.49-7.41,18.45,1.39,25.52,4.15,3.34,9.17,5.95,14.2,7.77,17.16,6.22,35.05,7.65,53.27,8.05Zm1858.7-233.68c.42-3.01,1.01-6.01,1.22-9.03.23-3.32.13-6.66.17-9.98.08-7.23-4.59-12.66-11.85-12.21-6.51.4-13.19,1.53-19.33,3.67-20.42,7.11-38.68,18.61-56.93,29.88-12.07,7.45-24.48,15.08-34.58,24.86-14.23,13.78-15.76,25.4-2.05,40.39,5.61,6.13,8.88,13.36,10.73,21.47,4.19,18.36,3.15,36.98,2.64,55.5-.24,8.77-2.3,17.52-3.95,26.2-1.7,8.95-6.97,15.85-13.44,22.09-7.29,7.03-7.43,16.66.37,23.8,3.69,3.38,8.22,6.54,12.93,7.95,10.04,3,20.36,5.33,30.72,6.92,9.24,1.41,18.7,2.14,28.04,1.93,10.98-.24,21.96-1.54,32.87-2.9,10.8-1.34,21.45-3.72,30.97-9.29,14.33-8.37,15.51-18.26,3.52-29.55-6.88-6.48-11.01-14.61-13.56-23.29-5.71-19.43-6.15-39.64-7.08-59.7-.38-8.23.44-16.53.85-24.79.64-12.69.81-25.45,2.38-38.03.74-5.96,3.73-11.85,6.66-17.25,2.26-4.17,6.38-6.1,11.7-6.2,9.91-.17,16.81,4.9,22.16,12.1,6.62,8.9,12.39,18.42,18.54,27.67,11.85,17.8,28.86,21.57,45.84,8.7,7.34-5.57,13.22-13.46,18.58-21.13,6.03-8.61,8.48-18.94,8.98-29.4.43-9.06-3.25-16.86-8.81-24.11-17.16-22.38-49.53-33.3-75.74-24.89-16.83,5.4-30.16,15.62-42.55,28.62Zm-218.79,233.38c12.53-.93,25.13-1.41,37.59-2.93,11.81-1.44,23.47-4.03,33.59-10.96,10.91-7.48,11.85-17.43,2.21-26.29-6.27-5.76-10.52-12.67-13.49-20.58-6.4-17.02-7.73-34.93-8.59-52.76-.67-13.88.13-27.86.8-41.77.72-14.97,1.84-29.92,3.16-44.85.82-9.33,2.42-18.59,3.49-27.9.93-8.06,1.93-16.13,2.3-24.22.35-7.58-4.66-12.86-12.14-12.34-6.33.44-12.82,1.57-18.81,3.64-21.37,7.4-40.33,19.65-59.46,31.34-11.4,6.97-23.08,14.28-32.41,23.66-15.33,15.4-13.85,25.91-2.18,39.97,4.04,4.87,7.81,10.63,9.5,16.61,2.54,8.94,4.19,18.41,4.32,27.69.22,15.35-.67,30.74-1.85,46.06-1.03,13.45-5.02,25.72-15.69,35.31-7.4,6.65-6.79,15.97,0,23.43,5.01,5.5,11.66,7.98,18.38,10.11,16,5.06,32.45,6.96,49.27,6.81Zm426.24.14c10.11-.87,22.64-1.41,34.99-3.18,11.08-1.58,22.13-4.06,31.68-10.58,11.58-7.89,12.28-17.96,1.93-27.26-6.06-5.45-9.94-12.29-12.74-19.85-6.85-18.51-7.82-37.98-8.86-57.34-.58-10.71.18-21.53.83-32.27,1.14-18.55,2.33-37.12,4.15-55.61,1.36-13.88,3.54-27.69,5.74-41.46,1.54-9.66-4.54-17.27-14.37-17.4-9.38-.13-17.94,3.1-25.95,7.2-16.46,8.42-32.86,17.06-48.65,26.65-12.11,7.36-24.39,15.14-34.54,24.88-13.23,12.71-15.58,24.2-2.86,39.33,4.48,5.33,8.75,11.84,10.23,18.46,2.82,12.62,4.5,25.67,4.91,38.59.36,11.59-1.53,23.26-2.61,34.87-1.22,13.01-4.9,24.8-15.3,33.91-8.76,7.66-6.75,20.09,2.49,26.31,4.06,2.73,8.5,5.07,13.07,6.81,17.22,6.55,35.45,6.76,55.86,7.94Zm37.95-321.42c.1-11.25-2.24-21.9-8.02-31.58-12.51-20.96-29.82-27.08-48.72-23.17-24.51,5.06-36.23,29.14-38.24,48.54-1.74,16.87,2.79,32.35,13.59,45.62,16.56,20.34,42.52,22.79,61.89,6.24,13.99-11.94,19.37-27.71,19.5-45.65Zm-469.96-55.81c-3.1.3-6.31.16-9.27.97-23.47,6.46-33.87,24.34-37.55,46.27-2.51,14.94.54,29.76,9.37,42.85,8.03,11.9,18.63,20.77,32.99,21.93,19.9,1.62,34.94-7.65,44.55-25.14,8.72-15.88,9.56-32.41,5.01-49.97-4.15-15.99-21.75-38.57-45.1-36.91Zm-1490.03,91.03h32.88c-10.63-8.97-20.33-17.15-30.34-25.59-.94,9.5-1.76,17.77-2.54,25.59Z" fill="#010101"/><path d="m1012.26,53.71c20.87-5.9,40.78-11.53,60.99-17.24,1.39,5.59,2.64,10.59,4.07,16.31-13.81,3.83-27.63,7.67-41.88,11.62,1.63,6.04,3.19,11.85,4.85,18.02,12.52-3.4,24.71-6.72,37.3-10.14,1.59,5.39,3.09,10.49,4.71,16-12.61,3.53-24.9,6.96-37.09,10.37,1.88,6.41,3.59,12.25,5.36,18.31,13.83-3.78,27.25-7.46,41.1-11.25,1.58,5.33,3.09,10.42,4.73,15.92-19.46,5.51-38.51,10.9-57.88,16.38-8.76-28.12-17.47-56.07-26.26-84.3Z" fill="#040404"/><path d="m1697.24,90.31c1.84,2.59,4.08,4.94,5.37,7.73,7.07,15.28-3.38,35.26-22.2,35.08-7.6-.07-14.67-1.25-21.47-4.33-10.24-4.65-18.24-13.48-17-26.3,1.04-10.75,7.97-18.44,20.72-22.05-8.61-11.74-8.72-20.11-1.35-29.38,3.53-4.44,8.16-7.2,14.44-7.23,9.59-.04,18.75.84,26.91,6.45,7.28,5.01,11.27,11.73,10.27,20.68-.99,8.86-5.44,15.38-14.15,18.49-.58.21-1.09.61-1.54.87Zm-26.1,2.04c-5.62-.2-9.12,2.45-11,7.23-2.39,6.07-1.28,10.34,3.8,13.96,2.6,1.85,5.65,3.56,8.72,4.14,4.72.89,12.48-.55,14.77-6.87,2.34-6.45.65-12.51-5.66-15.52-3.27-1.56-7.07-1.99-10.64-2.93Zm11.43-34.39c-7.13.03-11.42,3.96-11.57,10.6-.12,5.12,7.93,11.37,14.68,11.39,6.68.02,11.36-4.58,11.31-11.12-.05-6.45-5.97-10.91-14.43-10.87Z" fill="#040404"/><path d="m1515.48,10.18c18.7-.82,31.29,9.64,33.72,22.54,1.64,8.7,1.45,17.98.59,26.85-1,10.3-4.26,20.13-10.95,28.54-7.91,9.94-18.7,12.62-30.26,10.85-11.28-1.73-20.51-7.99-24.31-19.36-6.26-18.73-4.76-37.18,4.67-54.62,5.46-10.1,14.53-14.8,26.54-14.8Zm-1.87,72.98c.42,0,.84-.01,1.26-.06,5.24-.58,9.18-2.28,11.3-7.19,5.73-13.24,8.56-26.91,4.87-41.32-1.14-4.43-4.11-7.08-8.24-8.39-9.12-2.88-16.47,1.12-19.77,10.97-3.44,10.26-4.99,20.93-3.87,31.67.71,6.81,4.26,14.1,14.45,14.31Z" fill="#030303"/><path d="m1169.09,40.9c-8.75-1.05-16.64-2.01-24.53-2.92-.98-.11-2.12-.25-2.97.12-3.43,1.48-7.58,2.44-7.65,7.31-.07,5.04,3.58,7.49,7.64,8.42,7.76,1.77,15.7,2.69,23.53,4.16,9.58,1.79,15.86,8.93,16.89,18.86,1.93,18.61-7.26,29.37-25.97,32.3-11.85,1.86-22.44-.57-32.73-5.77-1.1-.56-2.23-2.73-2.02-3.93.81-4.77,2.14-9.45,3.26-14.06,5.11,2.01,10.09,4.95,15.41,5.8,5.89.94,12.14.41,18.12-.32,3.65-.45,5.93-3.39,6.08-7.46.15-4.14-2.16-6.85-5.7-7.77-5.18-1.36-10.56-1.96-15.87-2.75-7.32-1.09-14.71-2.1-20.42-7.4-11.58-10.75-10.7-28.34,2.13-37.65,9.71-7.05,20.64-9.66,32.61-6.95,4.28.97,8.67,1.46,12.98,2.3,2.79.55,3.69,2.22,2.81,5.06-1.4,4.47-2.56,9.02-3.58,12.66Z" fill="#030303"/><path d="m1413.95,72.8c12.08.84,22.84,1.58,33.81,2.34-.35,5.13-.69,10.13-1.09,16.1-18.18-.83-36.57-1.67-55.58-2.53.28-6.83-1.55-13.42,4.84-19.51,9.36-8.91,17.74-18.9,26.11-28.78,2.99-3.53,5.53-7.87,6.84-12.27,1.73-5.79-1.49-9.52-7.51-10.19-8.75-.98-15.56,3.36-22.15,8.25-.63.47-1.18,1.05-2.02,1.8-2.02-4.43-4.09-8.57-5.75-12.87-.4-1.03.12-3.17.96-3.8,12.22-9.05,25.54-13.22,40.71-8.61,13.46,4.09,20.26,17.62,13.23,31.67-3.63,7.26-9.48,13.5-14.81,19.78-5.25,6.18-11.13,11.83-17.59,18.62Z" fill="#040404"/><path d="m1235.11,96.17c-2.84-23.73-5.61-46.79-8.46-70.6-8.01.99-16.02,1.97-24.33,3-.79-5.06-1.64-10.45-2.61-16.61,7.12-1.02,13.97-2.1,20.84-2.97,11.14-1.41,22.29-2.8,33.45-3.94,3.95-.41,8.03-.44,11.94.13,1.21.18,2.65,2.8,2.93,4.47.58,3.51.47,7.14.67,11.3-6.64.65-13.6,1.52-20.58,1.92-3.04.18-4.27,1.14-3.94,4.15,1.02,9.42,1.92,18.86,3,28.28,1.23,10.7,2.49,21.41,3.94,32.08.84,6.18-.15,7.41-6.54,7.62-3.23.11-6.44.7-10.31,1.15Z" fill="#020202"/><path d="m1597.72,40.93c-4.85-1.07-9.54-2.1-15.07-3.31,1.15-5.59,2.28-11.04,3.41-16.52,10.04,2.02,19.59,4.02,29.19,5.81,3.33.62,4.35,2.35,3.64,5.45-3.89,16.99-7.84,33.97-11.65,50.98-2.27,10.14-4.29,20.34-6.51,30.88-5.71-1.31-11.07-2.54-17.04-3.91,4.65-23,9.27-45.9,14.02-69.38Z" fill="#030303"/><path d="m961.51,117.1c9.55-3.51,18.57-6.81,28.04-10.29,1.37,4.3,2.64,8.27,3.98,12.46-9.58,3.5-18.56,6.77-27.72,10.12-1.46-4.16-2.78-7.94-4.31-12.29Z" fill="#070707"/><path d="m1764.68,129.32c-9.52-3.41-18.53-6.65-27.87-10,1.57-4.29,3.02-8.24,4.51-12.33,9.34,3.42,18.44,6.75,27.92,10.22-1.52,4.04-2.94,7.8-4.57,12.11Z" fill="#070707"/><path d="m1312.01,81.08c.01,6.87-2.51,10.14-7.85,10.17-5.46.03-8.49-4.59-9.07-10.82-.48-5.15,3.47-8.49,9.04-8.47,6.04.01,7.87,2.13,7.88,9.13Z" fill="#070707"/><path d="m664.11,961.99v-109c2.1,0,4.19,0,6.28,0,12.49,0,24.99-.34,37.46.13,8.17.3,16.42,1.24,23.11,7.03,7.51,6.51,9.59,14.51,8.44,24.27-1.09,9.28-5.44,15.61-14.39,19.87,7.27,2.35,12.67,6.38,14.76,12.81,1.94,5.96,3.18,12.5,2.97,18.72-.4,11.95-8.64,20.73-21.65,24.56-2.94.87-6.06,1.52-9.11,1.54-15.8.15-31.59.07-47.86.07Zm21.01-19.99c6.99,0,13.63.26,20.24-.11,3.37-.19,6.91-1,9.97-2.4,4.97-2.28,7.01-7.46,5.58-14.14-1-4.67-4.13-7.97-9.19-8.33-8.81-.63-17.63-.97-26.6-1.44v26.42Zm.07-45c7.45,0,14.42.12,21.39-.04,6.8-.16,11.25-4.39,11.43-10.51.25-8.32-3-12.92-10.35-13.36-7.4-.44-14.85-.1-22.47-.1v23.99Z" fill="#010101"/><path d="m1112.26,853c15.24,0,30.22-.46,45.16.16,9.92.42,19.47,2.68,26.01,11.69,7.72,10.63,5.43,33.1-8.58,38.38-.41.15-.7.63-1.36,1.24,6.84,2.15,12.19,6.23,14.28,12.69,1.93,5.96,3.17,12.5,2.95,18.72-.44,11.98-9.45,21.49-22.09,24.82-2.67.7-5.48,1.2-8.23,1.22-15.96.11-31.91.06-48.13.06v-108.98Zm20.89,89c7.56,0,14.86.24,22.13-.12,2.85-.14,5.83-1.26,8.42-2.58,5.78-2.94,6.02-8.56,5.17-13.87-.76-4.71-4.03-8.02-9.07-8.4-8.81-.66-17.64-.98-26.65-1.45v26.43Zm-.01-45c7.55,0,14.83.22,22.08-.06,6.71-.26,10.7-4.65,10.78-11.12.1-7.88-3.28-12.34-10.49-12.72-7.39-.39-14.82-.09-22.37-.09v23.99Z" fill="#010101"/><path d="m1884.83,963c-17.93.68-36.75-12.93-43.79-31.51-8.85-23.36-6.47-45.42,10.39-64.36,10.78-12.11,24.69-16.89,41.46-14.39,16.47,2.45,28.31,10.7,35.77,24.91,5.97,11.37,8.37,23.57,6.64,36.87-1.43,10.98-4.59,20.78-11.03,29.6-8.27,11.31-22.5,19.37-39.43,18.89Zm30.19-56.49c-1.33-5.21-2.04-10.68-4.09-15.59-7.35-17.59-27.82-22.56-41.1-10.88-15.38,13.53-16.53,39.64-.03,54.87,10.76,9.93,27.39,6.97,35.09-1.85,6.63-7.61,9.34-16.39,10.13-26.55Z" fill="#030303"/><path d="m1421.14,961.87h-20.87v-108.86c14.39,0,28.83-.32,43.24.17,5.24.18,10.69,1.63,15.55,3.66,11.02,4.6,17.11,13.42,17.81,25.27.45,7.6.34,15.38-.77,22.89-1.37,9.26-6.97,16.26-15.09,21.34,6.39,11.71,12.75,23.37,19.46,35.66-7.72,0-14.66.12-21.59-.12-1.19-.04-2.83-1.4-3.4-2.56-4.18-8.45-8.06-17.06-12.27-25.5-.63-1.26-2.45-2.63-3.78-2.69-5.96-.29-11.93-.13-18.29-.13v30.87Zm0-51.78c7.65,0,14.96.14,22.25-.04,5.91-.15,12.18-4.31,13.31-9.35,1-4.42,1.49-9.13,1.15-13.63-.5-6.71-6.25-12.73-12.28-13.01-8.09-.38-16.2-.09-24.44-.09v36.13Z" fill="#020202"/><path d="m1044.41,961.92h-23.7c-4.41-9.21-9.06-18.47-13.22-27.94-1.12-2.54-2.37-3.07-4.78-3.02-5.66.13-11.33.04-17.56.04v30.81h-20.78v-108.45c.76-.09,1.85-.33,2.94-.34,12.83-.03,25.67-.4,38.47.1,9.2.36,18.37,1.97,25.46,8.8,10.26,9.88,11.67,22.48,10.32,35.69-.83,8.08-2.84,15.91-8.69,22.06-2.26,2.37-4.83,4.45-7.65,7.02,6.15,11.29,12.49,22.93,19.19,35.24Zm-59.22-51.84c7.63,0,15.1.29,22.53-.09,6-.31,10.97-3.44,12.84-9.18,1.38-4.23,1.59-9.07,1.3-13.57-.44-6.75-6.16-12.88-12.12-13.15-8.1-.37-16.23-.09-24.54-.09v36.08Z" fill="#010101"/><path d="m1748.82,853.13h20.9v108.6h-20.63v-42.51h-42.03v42.54h-20.83v-108.55h20.64v45.17h41.96v-45.24Z"/><path d="m1259.25,852.99c22.57,0,44.71,0,66.84,0,.8,0,1.6,0,2.71,0v20.31h-48.53v23.51h43.43v19.99h-43.42v24.56h50.43v20.37h-71.47v-108.75Z"/><path d="m902.05,962c-7.01,0-13.51.19-19.97-.15-1.41-.07-3.38-1.79-3.94-3.21-1.92-4.87-3.13-10.02-5.08-14.88-.53-1.31-2.68-2.77-4.11-2.8-11.98-.22-23.98-.06-35.96-.18-2.62-.03-3.72.81-4.5,3.35-1.8,5.89-4.06,11.65-6.22,17.67h-21.46c1.98-5.53,3.88-10.85,5.79-16.16,7.81-21.65,15.57-43.31,23.48-64.92,3.03-8.28,6.58-16.36,9.53-24.67.94-2.64,2.25-3.19,4.7-3.1,4.32.15,8.68.33,12.98-.04,4.13-.35,5.8,1.07,7.19,5.12,6.32,18.41,13.15,36.65,19.79,54.95,5.84,16.1,11.68,32.21,17.78,49.03Zm-36.62-41.13c-4.73-13.67-9.3-26.9-13.88-40.12-5.52,12.95-9.99,25.74-14.43,38.54-.15.44-.02.97-.02,1.58h28.33Z" fill="#030303"/><path d="m1610.88,883.32c-7.73-3.16-15.11-6.81-22.88-9.09-4.09-1.2-9.36-1.21-13.26.34-7.46,2.97-7.85,11.03-.97,15.49,4.47,2.89,9.61,4.79,14.55,6.89,4.22,1.79,8.67,3.04,12.88,4.87,13.2,5.73,18.21,16.52,17.75,30.19-.5,14.88-8.99,25.58-23.42,29.31-19.6,5.07-36.61-.71-51.84-13.24-2.06-1.69-2.11-3.26-1.1-5.54,2.41-5.4,4.58-10.91,6.84-16.34,5.08,3.5,9.85,7.35,15.13,10.3,7.33,4.1,15.17,7.59,23.76,4.39,2.93-1.09,6.29-3.5,7.48-6.18,1.67-3.77,1.05-8.57-3.04-11.01-4.5-2.68-9.5-4.53-14.32-6.66-6.39-2.83-13.15-4.99-19.13-8.49-10.87-6.36-13.47-16.92-12.18-28.63,1.24-11.22,6.98-19.79,17.43-24.18,18.23-7.65,35.37-3.54,51.57,6.33.99.61,1.67,3.18,1.25,4.41-2.01,5.91-4.44,11.67-6.47,16.84Z" fill="#030303"/><path d="m2023,931v30.7h-20.71v-108.59c14.75,0,29.52-.1,44.28.09,3.05.04,6.12,1.06,9.13,1.82,13.04,3.29,22.37,15.49,22.24,29.84-.07,7.55.26,15.4-1.64,22.58-3.93,14.91-15.07,22.48-31.27,23.5-7.12.45-14.29.08-22.02.08Zm.11-20.99c6.25,0,12.04-.06,17.83.01,10.2.13,16.16-4.04,17.71-14,1.57-10.08-1.52-19.82-11.35-21.66-7.79-1.46-16.08-.29-24.19-.29v35.94Z" fill="#010101"/><path d="m649.21,407.99c-.07,8.66.15,17.34-.28,25.98-.76,14.97-2.16,29.9-2.84,44.88-.44,9.64-.1,19.32-.1,28.99,0,21.33-.76,42.69.22,63.98,1.03,22.27,1.31,44.72,7.68,66.48,2.03,6.92,5.28,13.03,10.63,17.35,14.26,11.53,5.14,31.8-7.43,37.51-11.15,5.06-22.85,5.49-34.61,4.76-8.47-.52-16.85-2.34-25.29-3.45-9.45-1.25-19.01-1.89-28.36-3.64-14.92-2.78-28.76,2.67-43.07,4.63-18.68,2.56-37.51,5.31-56.06.06-17.64-4.99-31.45-16.17-43.26-29.86-14.19-16.43-23.47-35.45-29.56-56.21-5.3-18.1-7.16-36.63-5.66-55.24,2.4-29.71,10.67-57.65,28.63-82.08,14.61-19.88,33.4-34.04,58.01-37.77,17.37-2.63,34.33,1.34,49.28,11.27,6.68,4.43,12.93,9.51,19.12,14.11v-62.06c-17.88-4.54-34.4-10.48-49.57-19.76-17.93-10.97-30.19-26.3-34.6-47.04-3.92-18.45,5.58-37.76,22.42-47.2,17.39-9.75,35.95-11.84,55.62-9.88,25.45,2.53,47.95,11.61,67.57,27.77,19.21,15.82,32.13,35.82,38.37,60.03.73,2.82,1.71,5.56,2.87,9.28,8.67-2.72,17.56-4.99,26.07-8.26,34.05-13.1,62.63-34.03,85.32-62.48,10.38-13.03,19.37-27.21,28.41-41.25,10.22-15.89,24.67-25.61,43.09-26.57,26.8-1.41,58.09,13.68,68.59,46.37,7.08,22.06-.01,41.53-13.64,59.13-11.65,15.05-27.76,24.05-44.55,31.82-26.11,12.08-53.58,20.15-81.82,25.35-20.38,3.75-40.9,6.77-61.38,9.94-4.7.73-9.51.81-14.28,1.01-11.58.47-23.16.84-34.74,1.24-.27.28-.54.57-.8.85Zm-101.28,126.29c-1.24-12.36-1.83-20.9-3.01-29.37-1.51-10.83-5.15-20.68-13.71-28.29-9.15-8.14-19.75-7.53-27.14,2.2-2.39,3.15-5.02,6.44-6.25,10.1-4.21,12.59-8.87,25.17-11.42,38.13-2.39,12.21-2.54,24.89-3.24,37.38-.3,5.23.44,10.52.82,15.77,1.26,17.84,4.6,35.22,12.13,51.56,5.32,11.54,12.39,21.78,23.23,28.96,7.74,5.13,13.58,4.08,17.3-4.34,2.88-6.53,5.4-13.58,6.17-20.61,2.22-20.45,3.91-40.97,4.97-61.51.75-14.56.15-29.19.15-39.99Zm-2.71-167.47c-.45-2.88-.86-5.1-1.13-7.33-1.72-14.01-5.5-27.42-13.86-38.9-3.61-4.96-8.34-9.81-13.66-12.67-11.39-6.12-22.47-3.66-24.25,11.85-.93,8.13,3.96,15.35,9.61,21.36,11.76,12.51,26.67,19.78,43.29,25.69Z" fill="#fff"/><path d="m891.46,484.3c.83-1.65,1.7-3.28,2.47-4.96,7.08-15.44,15.88-29.54,30.83-38.66,13.81-8.42,28.33-8.63,43.21-3.25,27.12,9.81,39.67,31.85,48.07,57.34,1.99,6.05,3.79,12.16,5.91,18.97,1.06-4.25,1.97-8.1,2.98-11.92,4.64-17.57,11.83-33.82,23.33-48.17,23.68-29.55,65.72-23.82,85.14,2.48,11.65,15.79,17.73,33.96,21.49,52.81,5.57,27.93,9.86,56.12,15.27,84.09,3.74,19.32,8.33,38.52,19.43,55.28,2.64,3.98,5.74,7.88,9.37,10.93,8.93,7.5,6.53,17.21.33,23.98-6.31,6.88-14.9,9.64-23.62,11.73-13.59,3.26-27.46,3.32-41.34,3.14-14.73-.19-28.01-4.97-40.38-12.6-13.4-8.27-21.76-20.55-25.77-35.43-2.28-8.47-3.51-17.47-3.6-26.25-.38-35.83,0-71.66-.25-107.49-.05-7.54-1.12-15.15-2.57-22.55-.55-2.8-3.12-6.55-5.5-7.21-1.91-.52-5.62,2.46-7.33,4.77-8.41,11.35-12.31,24.69-15.87,38.12-4.68,17.64-6.61,35.59-6.19,53.85.29,12.66.59,25.36-.09,37.99-.78,14.44,5.2,24.93,16.52,33.05,1.21.87,2.38,1.81,3.48,2.82,10.17,9.29,9.31,21.13-2.04,29.28-9.31,6.68-20.12,9.22-31.12,10.36-10.67,1.11-21.49,1.27-32.24,1.18-11.7-.1-22.15-4.47-31.48-11.41-12.76-9.5-18.72-23.11-21.72-38.07-1.54-7.68-2.12-15.67-2.17-23.52-.22-36.66.04-73.33-.21-109.99-.05-7.19-1.21-14.45-2.64-21.52-.54-2.69-3.12-6.78-5.05-6.94-2.58-.21-6.19,2.16-8.02,4.48-8.64,10.94-13.06,24-16.95,37.15-4.77,16.13-8.13,32.52-8.31,49.51-.22,21.17,2,41.88,9.03,61.96,2.75,7.85,7.23,14.37,13.61,19.73,7.43,6.24,7.71,15.13.84,22.11-7.43,7.55-17.2,10.23-27.05,12.57-22.16,5.26-44.76,4.71-67.18,3.68-13.51-.62-27.15-3.14-39.54-9.53-6.81-3.52-12.31-7.96-13.82-16.3-1.05-5.79,1.05-10.49,4.81-13.63,12.97-10.83,14.92-25.81,16.42-40.96,1.04-10.48,2.25-21.09,1.72-31.55-.61-12.05-2.47-24.12-4.95-35.94-1.13-5.39-4.92-10.28-7.81-15.21-1.67-2.84-3.96-5.32-5.99-7.94-6.26-8.08-5.32-16.38-.76-24.78,4.72-8.71,12.01-15.14,20.04-20.38,24.65-16.09,49.64-31.68,76.95-42.99,5.7-2.36,12.04-3.78,18.2-4.33,12.05-1.08,15.88,5.41,15.36,16.03-.55,11.2-2.85,22.32-4.39,33.48.38.21.76.43,1.14.64Z" fill="#fff"/><path d="m1559.03,474.99c13.65,0,27.64.33,41.61-.12,8.78-.29,14.16,4.42,14.98,13.14.85,9.03.19,18.21.19,27.7h-60.32c-.18,9.19-.43,18.02-.49,26.85-.08,10.33-.61,20.7.15,30.97,1.52,20.68,2.36,41.53,10.72,61.07,4.54,10.6,11.94,16.11,23.77,15.33,4.83-.32,6.97,2.14,7.32,7.92.55,9.13-4.61,15.32-11.25,20.46-12.16,9.4-26.29,14.36-41.19,17.16-19.53,3.68-39.16,4.82-58.34-1.58-22.99-7.67-36.02-24.2-40.11-47.85-.87-5.04-1.07-10.24-1.09-15.37-.09-36.32-.05-72.65-.05-108.97v-5.8c-3.77,0-7.09-.29-10.34.05-11.82,1.26-16.68-7.91-17.58-16.32-1.17-10.92,2.16-18.9,12.63-24.39,11.98-6.28,17.5-17.65,19.42-30.8,1.52-10.38,2.1-20.77-1.16-30.92-1.29-4.02-2.95-8.05-5.18-11.6-6.26-10-14.43-12.58-26.08-10.21-20.03,4.08-40.07,8.56-60.33,10.98-17.66,2.11-35.75,3.17-53.45,1.94-33.72-2.34-65.21-12.99-93.96-31.05-13.2-8.29-20.58-20.29-21.98-35.92-2.47-27.6,16.54-58.1,47.84-64.34,12.14-2.42,24.73.04,35.27,6.98,10.22,6.73,19.64,14.7,29.17,22.42,19.81,16.04,41.42,29.03,64.9,38.9,27.99,11.77,57.23,16.7,87.45,14.18,26.11-2.17,50.52-10.1,72.67-24.48,9.13-5.93,18.06-12.29,29-14.71,7.23-1.6,13.61.93,15.42,7.92,1.72,6.61,2.52,13.76,2.03,20.56-.86,11.89-3.07,23.68-4.6,35.53-1.73,13.37-3.42,26.74-4.98,40.13-.85,7.33-1.74,14.69-1.97,22.05-.33,10.54-.09,21.09-.09,32.18Z" fill="#fff"/><path d="m1732.37,433.95c15.23-.22,33.08,1.78,50.15,8.27,25.26,9.6,41.71,28,51.45,52.77,5.82,14.8,8.85,30.3,11.15,46,4.05,27.6,4.72,55.69,11.97,82.81,3.59,13.44,10.08,25.01,21.57,33.58,9.73,7.26,10.08,16.94,1.41,25.96-7.65,7.96-17.56,11.58-28.08,13.7-21.61,4.36-40.7-2.41-58.92-13.36-7.64-4.59-15.57-8.74-23.55-12.73-7.04-3.52-14.17-2.76-20.83,1.26-7.22,4.37-14.24,9.08-21.44,13.49-19.96,12.23-41.49,15.07-64.25,10.68-18.36-3.54-33.99-11.89-45.45-26.78-15.28-19.86-16.81-41.9-9.16-65.19,6.33-19.25,20.31-30.89,38.55-37.19,17.27-5.97,35.14-10.2,52.71-15.28,6.63-1.92,13.31-3.8,19.76-6.24,17.1-6.48,28.21-18.66,31.09-36.78,2.14-13.49.8-26.9-8.37-38.22-1.14-1.4-2.48-2.68-3.87-3.83-6.16-5.08-12.72-4.13-15.83,3.2-2.85,6.72-4.49,14-6.27,21.13-1.35,5.41-2.21,10.96-3.08,16.48-2.76,17.6-14.32,27.52-31.72,30.47-15.93,2.7-30.08-1.41-42.64-11.08-7.53-5.8-15.13-20.63-9.13-36.72,7.74-20.75,22.11-35.02,41.71-44.34,18.35-8.72,37.87-12.29,61.06-12.02Zm21.71,149.08c.14-.02.28-.04.41-.06-.81-5.14-1.71-10.28-2.42-15.44-.74-5.39-3.92-7.09-8.64-4.24-1.96,1.18-3.67,2.83-5.35,4.41-5.55,5.21-11.06,10.46-16.55,15.73-4.54,4.35-9.38,8.44-13.47,13.18-12.1,14.01-8.92,35.15,6.57,43.72,3.81,2.11,8.21,3.88,12.49,4.3,13.71,1.34,20.87-.78,24.51-15.03,1.85-7.24,2-14.97,2.36-22.51.38-8,.08-16.03.08-24.05Z" fill="#fefefe"/><path d="m1288.28,590.29c4.44,15.97,18.94,29.93,35.58,32.72,20.25,3.39,37.62-3.82,52.9-15.74,10.23-7.98,18.72-18.19,27.98-27.41,1.99-1.99,3.69-4.36,5.93-6,4.91-3.6,11.37-1.34,12.21,4.66.73,5.22.98,10.84-.16,15.93-10.14,45.45-34.43,80.08-79.11,96.83-36.94,13.85-72.31,8.37-104.27-14.86-29.91-21.74-46.76-51.76-52.3-88.06-1.56-10.24-2.54-20.83-1.81-31.12,3.61-50.39,33.09-100.53,86.92-118.25,15.26-5.03,30.85-5.81,46.9-4.2,25.58,2.56,48.11,11.39,66.57,29.43,8.98,8.78,15.97,19.19,19.17,31.45,3.69,14.17,1.78,28.09-4.54,41.26-13.32,27.73-34.59,46.7-63.92,55.96-16.07,5.07-32.3,3.94-48.06-2.6Zm-6.01-22.45c.52.34,1.04.68,1.56,1.02,4.8-4.68,10.25-8.86,14.29-14.12,16.14-21,19.76-45.4,17.7-70.98-.4-4.95-2.02-10.03-4.11-14.57-3.02-6.56-8.83-7.42-13.35-1.82-3.45,4.28-6.76,9.35-8.04,14.58-3.39,13.87-6.12,27.95-8.21,42.08-2.16,14.54-1.81,29.23.17,43.82Z" fill="#fefefe"/><path d="m2562.01,590.6c5.44,11.77,11.97,21.43,22.72,27.46,16.9,9.48,33.75,6.6,50.27-.87,18.31-8.28,32.25-21.94,44.45-37.57,1.22-1.56,2.29-3.61,3.93-4.39,2.77-1.32,6.7-3.32,8.76-2.28,2.68,1.35,5.44,5.27,5.67,8.28,1.12,14.21-3.31,27.5-8.81,40.32-14.45,33.74-37.95,58.59-73.16,70.58-36.07,12.29-70.25,7.06-101.16-15.07-31.01-22.19-48.55-53.21-53.58-90.68-6.32-47.13,7.22-88.19,41.65-121.44,17.28-16.69,38.19-27.18,62.26-29.93,32-3.65,61.8,2.36,87.69,22.65,12.26,9.62,21.65,21.68,26.17,36.68,5.25,17.44,1.4,34-7.53,49.39-14.22,24.5-34.41,42.02-62.1,49.37-14.02,3.72-28.44,3.24-42.5-1.18-1.37-.43-2.77-.78-4.74-1.33Zm-5.85-21.48c8.56-4.66,14.12-10.46,18.74-17.24,13.24-19.43,17.24-41.28,15.82-64.2-.41-6.7-2.73-13.52-5.37-19.78-2.12-5.03-7.11-5.7-11.1-1.87-3,2.88-5.47,6.62-7.26,10.41-6.14,12.99-8.04,27.1-9.9,41.16-.84,6.33-1.84,12.7-1.88,19.06-.07,10.58.58,21.17.95,32.46Z" fill="#fefefe"/><path d="m143.18,698.22c-30.53.11-54.67-9.51-75.56-27.2-23.6-19.99-37.59-45.71-43.8-75.91-4.22-20.51-3.9-40.82.89-61.19,8.09-34.44,25.9-62.24,55.63-81.86,20.63-13.61,43.46-19.9,68.1-17.94,33.73,2.67,61.1,17.87,82.44,43.97,13.71,16.76,23.21,35.72,27.24,57.01,2.1,11.1,3.86,22.53,3.58,33.76-.91,36.95-13.26,69.63-40.03,95.81-22.49,21.99-49.45,33.85-78.49,33.56Zm-28.91-134.51c.7,14.32.77,24.28,1.78,34.13,1.31,12.75,2.8,25.54,5.27,38.1,2.1,10.64,4.91,21.35,11.95,30.13,5.09,6.34,11.27,6.26,15.95-.38,2.64-3.73,4.92-7.87,6.55-12.13,9.01-23.56,10.69-48.41,12-73.23.56-10.54-.11-21.2-.88-31.76-.97-13.28-2.13-26.58-4.11-39.73-1.92-12.74-5.19-25.26-12.4-36.25-5.75-8.76-12.53-8.75-18.37-.14-8.86,13.07-11.61,28.31-13.75,43.35-2.46,17.26-2.98,34.8-4,47.91Z" fill="#fefefe"/><path d="m326.01,699.07c-18.23-.4-36.12-1.83-53.27-8.05-5.03-1.82-10.05-4.43-14.2-7.77-8.81-7.07-9.77-18.03-1.39-25.52,10.93-9.78,14.37-22.25,15.87-35.77,1.27-11.44,2.46-22.92,2.91-34.42.82-20.9,1.08-41.83,1.52-62.75.22-10.65,1-21.35.34-31.95-1.11-17.72-.21-35.6-4.64-53.1-2.73-10.77-8.15-19.84-15.23-27.98-9.67-11.1-6.68-24.01,1.13-33.39,8.33-10,18.98-17.05,30.16-23.32,20.17-11.31,40.37-22.58,60.79-33.43,5.13-2.73,11.03-4.88,16.76-5.44,15.62-1.54,20.39,5,18.91,20.95-.98,10.6-2.7,21.14-3.55,31.75-1.3,16.26-2.21,32.56-3.15,48.85-.76,13.18-1.58,26.36-1.93,39.56-.66,25.07-1.12,50.15-1.42,75.23-.15,12.48-.27,24.99.51,37.43,1.45,23.14,2.96,46.34,9.09,68.84,1.98,7.27,5.48,14.28,11.89,18.96,10.91,7.96,7.92,19.94-.44,26.22-8.73,6.56-18.9,9.52-29.37,10.96-13.69,1.89-27.51,2.81-41.27,4.14Z" fill="#fff"/><path d="m2184.7,465.39c12.4-13,25.73-23.22,42.55-28.62,26.21-8.42,58.58,2.51,75.74,24.89,5.56,7.25,9.24,15.05,8.81,24.11-.5,10.45-2.95,20.78-8.98,29.4-5.36,7.66-11.24,15.56-18.58,21.13-16.98,12.87-33.99,9.1-45.84-8.7-6.15-9.24-11.92-18.77-18.54-27.67-5.36-7.2-12.26-12.27-22.16-12.1-5.31.09-9.44,2.03-11.7,6.2-2.93,5.4-5.92,11.29-6.66,17.25-1.56,12.58-1.74,25.34-2.38,38.03-.42,8.26-1.23,16.55-.85,24.79.93,20.05,1.37,40.26,7.08,59.7,2.55,8.68,6.68,16.81,13.56,23.29,11.99,11.29,10.8,21.18-3.52,29.55-9.52,5.56-20.18,7.94-30.97,9.29-10.92,1.36-21.9,2.66-32.87,2.9-9.34.21-18.8-.52-28.04-1.93-10.36-1.59-20.68-3.92-30.72-6.92-4.71-1.41-9.24-4.57-12.93-7.95-7.8-7.14-7.66-16.77-.37-23.8,6.47-6.24,11.74-13.14,13.44-22.09,1.65-8.68,3.7-17.43,3.95-26.2.51-18.52,1.55-37.14-2.64-55.5-1.85-8.1-5.13-15.33-10.73-21.47-13.7-14.99-12.17-26.61,2.05-40.39,10.1-9.78,22.5-17.4,34.58-24.86,18.25-11.27,36.51-22.78,56.93-29.88,6.14-2.14,12.82-3.26,19.33-3.67,7.26-.45,11.94,4.98,11.85,12.21-.04,3.33.07,6.67-.17,9.98-.21,3.02-.8,6.02-1.22,9.03Z" fill="#fefefe"/><path d="m1965.91,698.77c-16.82.15-33.27-1.75-49.27-6.81-6.72-2.13-13.38-4.61-18.38-10.11-6.79-7.46-7.41-16.78,0-23.43,10.67-9.59,14.66-21.87,15.69-35.31,1.18-15.32,2.07-30.72,1.85-46.06-.13-9.27-1.78-18.75-4.32-27.69-1.7-5.98-5.47-11.74-9.5-16.61-11.67-14.06-13.15-24.57,2.18-39.97,9.33-9.37,21.01-16.69,32.41-23.66,19.13-11.69,38.08-23.93,59.46-31.34,5.99-2.07,12.47-3.21,18.81-3.64,7.48-.52,12.49,4.76,12.14,12.34-.38,8.09-1.38,16.16-2.3,24.22-1.07,9.31-2.67,18.57-3.49,27.9-1.31,14.93-2.44,29.88-3.16,44.85-.66,13.91-1.46,27.89-.8,41.77.86,17.83,2.19,35.74,8.59,52.76,2.97,7.91,7.22,14.82,13.49,20.58,9.64,8.86,8.7,18.82-2.21,26.29-10.12,6.94-21.78,9.52-33.59,10.96-12.46,1.52-25.05,2-37.59,2.93Z" fill="#fff"/><path d="m2392.15,698.91c-20.41-1.17-38.64-1.39-55.86-7.94-4.57-1.74-9.01-4.08-13.07-6.81-9.25-6.22-11.25-18.64-2.49-26.31,10.4-9.1,14.08-20.89,15.3-33.91,1.09-11.62,2.97-23.29,2.61-34.87-.4-12.92-2.08-25.97-4.91-38.59-1.48-6.62-5.76-13.13-10.23-18.46-12.71-15.14-10.37-26.63,2.86-39.33,10.14-9.74,22.43-17.52,34.54-24.88,15.79-9.6,32.19-18.23,48.65-26.65,8.01-4.1,16.58-7.33,25.95-7.2,9.83.13,15.92,7.74,14.37,17.4-2.2,13.78-4.38,27.59-5.74,41.46-1.82,18.49-3.01,37.06-4.15,55.61-.66,10.74-1.41,21.55-.83,32.27,1.04,19.36,2.01,38.83,8.86,57.34,2.8,7.56,6.68,14.4,12.74,19.85,10.35,9.3,9.65,19.37-1.93,27.26-9.56,6.51-20.6,8.99-31.68,10.58-12.35,1.77-24.89,2.31-34.99,3.18Z" fill="#fff"/><path d="m2430.1,377.5c-.13,17.94-5.52,33.7-19.5,45.65-19.37,16.54-45.32,14.09-61.89-6.24-10.81-13.27-15.34-28.75-13.59-45.62,2.01-19.4,13.73-43.48,38.24-48.54,18.9-3.9,36.21,2.22,48.72,23.17,5.78,9.68,8.11,20.33,8.02,31.58Z" fill="#fff"/><path d="m1960.15,321.69c23.34-1.66,40.95,20.91,45.1,36.91,4.55,17.56,3.71,34.09-5.01,49.97-9.61,17.49-24.65,26.76-44.55,25.14-14.36-1.17-24.96-10.03-32.99-21.93-8.83-13.09-11.88-27.91-9.37-42.85,3.68-21.93,14.09-39.81,37.55-46.27,2.95-.81,6.17-.67,9.27-.97Z" fill="#fff"/><path d="m470.11,412.72c.78-7.82,1.6-16.1,2.54-25.59,10.01,8.44,19.71,16.62,30.34,25.59h-32.88Z" fill="#fdfdfd"/><path d="m649.21,407.99c.27-.28.54-.57.8-.85-.27.28-.54.57-.8.85Z" fill="#212121"/><path d="m1671.14,92.35c3.56.94,7.37,1.38,10.64,2.93,6.3,3.01,8,9.07,5.66,15.52-2.29,6.32-10.05,7.76-14.77,6.87-3.07-.58-6.12-2.29-8.72-4.14-5.08-3.61-6.19-7.88-3.8-13.96,1.88-4.78,5.38-7.43,11-7.23Z" fill="#fefefe"/><path d="m1682.57,57.97c8.46-.04,14.38,4.42,14.43,10.87.05,6.54-4.63,11.14-11.31,11.12-6.75-.02-14.8-6.27-14.68-11.39.15-6.64,4.43-10.57,11.57-10.6Z" fill="#fdfdfd"/><path d="m1514.24,82.93c-10.52-.3-14.36-7.37-15.08-14.32-1.12-10.74.43-21.41,3.87-31.67,3.3-9.85,10.65-13.86,19.77-10.97,4.13,1.31,7.1,3.95,8.24,8.39,3.69,14.41.86,28.07-4.87,41.32-2.21,5.11-6.11,7.19-11.93,7.26Z" fill="#fefefe"/><path d="m685.12,942v-26.42c8.97.47,17.8.81,26.6,1.44,5.06.36,8.19,3.66,9.19,8.33,1.43,6.68-.61,11.86-5.58,14.14-3.06,1.41-6.6,2.22-9.97,2.4-6.61.37-13.25.11-20.24.11Z" fill="#fefefe"/><path d="m685.19,897v-23.99c7.62,0,15.06-.34,22.47.1,7.34.44,10.59,5.03,10.35,13.36-.18,6.12-4.63,10.35-11.43,10.51-6.96.16-13.93.04-21.39.04Z" fill="#fff"/><path d="m1133.15,942v-26.43c9.01.47,17.84.79,26.65,1.45,5.04.38,8.31,3.7,9.07,8.4.85,5.31.61,10.93-5.17,13.87-2.59,1.32-5.57,2.44-8.42,2.58-7.27.36-14.57.12-22.13.12Z" fill="#fefefe"/><path d="m1133.14,896.99v-23.99c7.55,0,14.98-.3,22.37.09,7.21.38,10.59,4.84,10.49,12.72-.08,6.47-4.07,10.86-10.78,11.12-7.25.29-14.53.06-22.08.06Z" fill="#fff"/><path d="m1915.02,906.51c-.79,10.16-3.49,18.94-10.13,26.55-7.7,8.83-24.33,11.79-35.09,1.85-16.51-15.24-15.35-41.35.03-54.87,13.28-11.68,33.75-6.71,41.1,10.88,2.05,4.91,2.76,10.38,4.09,15.59Z" fill="#fefefe"/><path d="m1421.14,910.09v-36.13c8.24,0,16.35-.29,24.44.09,6.03.28,11.77,6.3,12.28,13.01.34,4.5-.16,9.21-1.15,13.63-1.14,5.04-7.4,9.2-13.31,9.35-7.29.19-14.6.04-22.25.04Z" fill="#fff"/><path d="m985.2,910.08v-36.08c8.31,0,16.44-.27,24.54.09,5.96.27,11.69,6.4,12.12,13.15.29,4.5.08,9.34-1.3,13.57-1.87,5.74-6.84,8.87-12.84,9.18-7.43.38-14.89.09-22.53.09Z" fill="#fff"/><path d="m865.43,920.87h-28.33c0-.61-.13-1.15.02-1.58,4.44-12.8,8.91-25.59,14.43-38.54,4.58,13.23,9.15,26.46,13.88,40.12Z" fill="#fdfdfd"/><path d="m2023.1,910v-35.94c8.11,0,16.4-1.17,24.19.29,9.83,1.84,12.92,11.59,11.35,21.66-1.55,9.96-7.51,14.13-17.71,14-5.79-.07-11.58-.01-17.83-.01Z" fill="#fff"/><path d="m547.93,534.28c0,10.8.61,25.43-.15,39.99-1.06,20.54-2.75,41.07-4.97,61.51-.76,7.03-3.28,14.08-6.17,20.61-3.72,8.42-9.56,9.47-17.3,4.34-10.84-7.18-17.91-17.42-23.23-28.96-7.54-16.34-10.87-33.72-12.13-51.56-.37-5.25-1.11-10.55-.82-15.77.71-12.5.85-25.17,3.24-37.38,2.54-12.97,7.2-25.55,11.42-38.13,1.23-3.66,3.85-6.95,6.25-10.1,7.39-9.73,17.98-10.33,27.14-2.2,8.56,7.61,12.19,17.46,13.71,28.29,1.18,8.46,1.77,17.01,3.01,29.37Z" fill="#010101"/><path d="m545.22,366.82c-16.63-5.91-31.53-13.19-43.29-25.69-5.65-6.01-10.54-13.23-9.61-21.36,1.78-15.51,12.86-17.96,24.25-11.85,5.32,2.86,10.05,7.71,13.66,12.67,8.36,11.48,12.14,24.89,13.86,38.9.27,2.23.68,4.45,1.13,7.33Z" fill="#040404"/><path d="m1754.08,583.03c0,8.02.29,16.05-.08,24.05-.35,7.54-.51,15.27-2.36,22.51-3.64,14.25-10.8,16.37-24.51,15.03-4.28-.42-8.68-2.19-12.49-4.3-15.5-8.57-18.68-29.7-6.57-43.72,4.09-4.74,8.94-8.83,13.47-13.18,5.49-5.27,11-10.52,16.55-15.73,1.69-1.58,3.39-3.22,5.35-4.41,4.72-2.85,7.9-1.15,8.64,4.24.71,5.16,1.61,10.29,2.42,15.44-.14.02-.28.04-.41.06Z" fill="#030303"/><path d="m1282.28,567.84c-1.98-14.59-2.33-29.27-.17-43.82,2.1-14.13,4.83-28.21,8.21-42.08,1.28-5.23,4.58-10.3,8.04-14.58,4.52-5.6,10.32-4.73,13.35,1.82,2.09,4.54,3.71,9.62,4.11,14.57,2.07,25.58-1.55,49.98-17.7,70.98-4.04,5.26-9.49,9.44-14.29,14.12-.52-.34-1.04-.68-1.56-1.02Z" fill="#030303"/><path d="m2556.16,569.12c-.37-11.29-1.01-21.88-.95-32.46.04-6.36,1.05-12.73,1.88-19.06,1.86-14.06,3.75-28.17,9.9-41.16,1.79-3.79,4.26-7.53,7.26-10.41,3.99-3.84,8.98-3.17,11.1,1.87,2.64,6.26,4.96,13.08,5.37,19.78,1.41,22.92-2.58,44.77-15.82,64.2-4.62,6.78-10.18,12.59-18.74,17.24Z" fill="#030303"/><path d="m114.28,563.71c1.02-13.11,1.54-30.65,4-47.91,2.14-15.03,4.89-30.28,13.75-43.35,5.84-8.62,12.62-8.63,18.37.14,7.21,10.99,10.48,23.52,12.4,36.25,1.98,13.15,3.14,26.45,4.11,39.73.77,10.56,1.43,21.21.88,31.76-1.31,24.81-2.99,49.67-12,73.23-1.63,4.26-3.92,8.4-6.55,12.13-4.69,6.64-10.86,6.73-15.95.38-7.04-8.78-9.86-19.48-11.95-30.13-2.47-12.56-3.97-25.35-5.27-38.1-1.01-9.86-1.07-19.81-1.78-34.13Z" fill="#020202"/></svg>